<?xml version="1.0" encoding="UTF-8" standalone="no"?><svg xmlns="http://www.w3.org/2000/svg" xmlns:xlink="http://www.w3.org/1999/xlink" contentStyleType="text/css" height="1205px" preserveAspectRatio="none" style="width:1429px;height:1205px;background:#FFFFFF;" version="1.1" viewBox="0 0 1429 1205" width="1429px" zoomAndPan="magnify"><defs/><g><rect fill="none" height="734.0547" style="stroke:#000000;stroke-width:1.5;" width="512" x="911.5" y="214.8281"/><line style="stroke:#181818;stroke-width:0.5;stroke-dasharray:5.0,5.0;" x1="36" x2="36" y1="81.2969" y2="1124.5469"/><line style="stroke:#181818;stroke-width:0.5;stroke-dasharray:5.0,5.0;" x1="329" x2="329" y1="81.2969" y2="1124.5469"/><line style="stroke:#181818;stroke-width:0.5;stroke-dasharray:5.0,5.0;" x1="509.5" x2="509.5" y1="81.2969" y2="1124.5469"/><line style="stroke:#181818;stroke-width:0.5;stroke-dasharray:5.0,5.0;" x1="671" x2="671" y1="81.2969" y2="1124.5469"/><line style="stroke:#181818;stroke-width:0.5;stroke-dasharray:5.0,5.0;" x1="978.5" x2="978.5" y1="81.2969" y2="1124.5469"/><line style="stroke:#181818;stroke-width:0.5;stroke-dasharray:5.0,5.0;" x1="1203" x2="1203" y1="81.2969" y2="1124.5469"/><line style="stroke:#181818;stroke-width:0.5;stroke-dasharray:5.0,5.0;" x1="1363.5" x2="1363.5" y1="81.2969" y2="1124.5469"/><text fill="#000000" font-family="sans-serif" font-size="14" lengthAdjust="spacing" textLength="57" x="5" y="77.9951">Etudiant</text><ellipse cx="36.5" cy="13.5" fill="#E2E2F0" rx="8" ry="8" style="stroke:#181818;stroke-width:0.5;"/><path d="M36.5,21.5 L36.5,48.5 M23.5,29.5 L49.5,29.5 M36.5,48.5 L23.5,63.5 M36.5,48.5 L49.5,63.5 " fill="none" style="stroke:#181818;stroke-width:0.5;"/><text fill="#000000" font-family="sans-serif" font-size="14" lengthAdjust="spacing" textLength="57" x="5" y="1136.542">Etudiant</text><ellipse cx="36.5" cy="1148.3438" fill="#E2E2F0" rx="8" ry="8" style="stroke:#181818;stroke-width:0.5;"/><path d="M36.5,1156.3438 L36.5,1183.3438 M23.5,1164.3438 L49.5,1164.3438 M36.5,1183.3438 L23.5,1198.3438 M36.5,1183.3438 L49.5,1198.3438 " fill="none" style="stroke:#181818;stroke-width:0.5;"/><rect fill="#E2E2F0" height="30.2969" rx="2.5" ry="2.5" style="stroke:#181818;stroke-width:0.5;" width="53" x="303" y="50"/><text fill="#000000" font-family="sans-serif" font-size="14" lengthAdjust="spacing" textLength="39" x="310" y="69.9951">Client</text><rect fill="#E2E2F0" height="30.2969" rx="2.5" ry="2.5" style="stroke:#181818;stroke-width:0.5;" width="53" x="303" y="1123.5469"/><text fill="#000000" font-family="sans-serif" font-size="14" lengthAdjust="spacing" textLength="39" x="310" y="1143.542">Client</text><rect fill="#E2E2F0" height="30.2969" rx="2.5" ry="2.5" style="stroke:#181818;stroke-width:0.5;" width="64" x="477.5" y="50"/><text fill="#000000" font-family="sans-serif" font-size="14" lengthAdjust="spacing" textLength="50" x="484.5" y="69.9951">Routes</text><rect fill="#E2E2F0" height="30.2969" rx="2.5" ry="2.5" style="stroke:#181818;stroke-width:0.5;" width="64" x="477.5" y="1123.5469"/><text fill="#000000" font-family="sans-serif" font-size="14" lengthAdjust="spacing" textLength="50" x="484.5" y="1143.542">Routes</text><rect fill="#E2E2F0" height="30.2969" rx="2.5" ry="2.5" style="stroke:#181818;stroke-width:0.5;" width="131" x="606" y="50"/><text fill="#000000" font-family="sans-serif" font-size="14" lengthAdjust="spacing" textLength="117" x="613" y="69.9951">CourseController</text><rect fill="#E2E2F0" height="30.2969" rx="2.5" ry="2.5" style="stroke:#181818;stroke-width:0.5;" width="131" x="606" y="1123.5469"/><text fill="#000000" font-family="sans-serif" font-size="14" lengthAdjust="spacing" textLength="117" x="613" y="1143.542">CourseController</text><rect fill="#E2E2F0" height="30.2969" rx="2.5" ry="2.5" style="stroke:#181818;stroke-width:0.5;" width="114" x="921.5" y="50"/><text fill="#000000" font-family="sans-serif" font-size="14" lengthAdjust="spacing" textLength="100" x="928.5" y="69.9951">CourseService</text><rect fill="#E2E2F0" height="30.2969" rx="2.5" ry="2.5" style="stroke:#181818;stroke-width:0.5;" width="114" x="921.5" y="1123.5469"/><text fill="#000000" font-family="sans-serif" font-size="14" lengthAdjust="spacing" textLength="100" x="928.5" y="1143.542">CourseService</text><rect fill="#E2E2F0" height="30.2969" rx="2.5" ry="2.5" style="stroke:#181818;stroke-width:0.5;" width="103" x="1152" y="50"/><text fill="#000000" font-family="sans-serif" font-size="14" lengthAdjust="spacing" textLength="89" x="1159" y="69.9951">HttpClientApi</text><rect fill="#E2E2F0" height="30.2969" rx="2.5" ry="2.5" style="stroke:#181818;stroke-width:0.5;" width="103" x="1152" y="1123.5469"/><text fill="#000000" font-family="sans-serif" font-size="14" lengthAdjust="spacing" textLength="89" x="1159" y="1143.542">HttpClientApi</text><rect fill="#E2E2F0" height="30.2969" rx="2.5" ry="2.5" style="stroke:#181818;stroke-width:0.5;" width="100" x="1313.5" y="50"/><text fill="#000000" font-family="sans-serif" font-size="14" lengthAdjust="spacing" textLength="86" x="1320.5" y="69.9951">API Planifium</text><rect fill="#E2E2F0" height="30.2969" rx="2.5" ry="2.5" style="stroke:#181818;stroke-width:0.5;" width="100" x="1313.5" y="1123.5469"/><text fill="#000000" font-family="sans-serif" font-size="14" lengthAdjust="spacing" textLength="86" x="1320.5" y="1143.542">API Planifium</text><polygon fill="#181818" points="317.5,108.4297,327.5,112.4297,317.5,116.4297,321.5,112.4297" style="stroke:#181818;stroke-width:1.0;"/><line style="stroke:#181818;stroke-width:1.0;" x1="36.5" x2="323.5" y1="112.4297" y2="112.4297"/><text fill="#000000" font-family="sans-serif" font-size="13" lengthAdjust="spacing" textLength="269" x="43.5" y="107.3638">/compare?sigles=IFT2255,XX9999,IFT2015</text><polygon fill="#181818" points="497.5,137.5625,507.5,141.5625,497.5,145.5625,501.5,141.5625" style="stroke:#181818;stroke-width:1.0;"/><line style="stroke:#181818;stroke-width:1.0;" x1="329.5" x2="503.5" y1="141.5625" y2="141.5625"/><text fill="#000000" font-family="sans-serif" font-size="13" lengthAdjust="spacing" textLength="156" x="336.5" y="136.4966">GET /compare?sigles=...</text><polygon fill="#181818" points="659.5,166.6953,669.5,170.6953,659.5,174.6953,663.5,170.6953" style="stroke:#181818;stroke-width:1.0;"/><line style="stroke:#181818;stroke-width:1.0;" x1="509.5" x2="665.5" y1="170.6953" y2="170.6953"/><text fill="#000000" font-family="sans-serif" font-size="13" lengthAdjust="spacing" textLength="138" x="516.5" y="165.6294">compareCourses(ctx)</text><polygon fill="#181818" points="966.5,195.8281,976.5,199.8281,966.5,203.8281,970.5,199.8281" style="stroke:#181818;stroke-width:1.0;"/><line style="stroke:#181818;stroke-width:1.0;" x1="671.5" x2="972.5" y1="199.8281" y2="199.8281"/><text fill="#000000" font-family="sans-serif" font-size="13" lengthAdjust="spacing" textLength="283" x="678.5" y="194.7622">compareCourses("IFT2255,XX9999,IFT2015")</text><path d="M911.5,214.8281 L988.5,214.8281 L988.5,221.9609 L978.5,231.9609 L911.5,231.9609 L911.5,214.8281 " fill="#EEEEEE" style="stroke:#000000;stroke-width:1.5;"/><rect fill="none" height="734.0547" style="stroke:#000000;stroke-width:1.5;" width="512" x="911.5" y="214.8281"/><text fill="#000000" font-family="sans-serif" font-size="13" font-weight="bold" lengthAdjust="spacing" textLength="32" x="926.5" y="227.895">loop</text><text fill="#000000" font-family="sans-serif" font-size="11" font-weight="bold" lengthAdjust="spacing" textLength="125" x="1003.5" y="227.0386">[pour chaque sigle]</text><line style="stroke:#181818;stroke-width:1.0;" x1="978.5" x2="1020.5" y1="253.0938" y2="253.0938"/><line style="stroke:#181818;stroke-width:1.0;" x1="1020.5" x2="1020.5" y1="253.0938" y2="266.0938"/><line style="stroke:#181818;stroke-width:1.0;" x1="979.5" x2="1020.5" y1="266.0938" y2="266.0938"/><polygon fill="#181818" points="989.5,262.0938,979.5,266.0938,989.5,270.0938,985.5,266.0938" style="stroke:#181818;stroke-width:1.0;"/><text fill="#000000" font-family="sans-serif" font-size="13" lengthAdjust="spacing" textLength="179" x="985.5" y="248.0278">getCourseDetails("IFT2255")</text><polygon fill="#181818" points="1191.5,291.2266,1201.5,295.2266,1191.5,299.2266,1195.5,295.2266" style="stroke:#181818;stroke-width:1.0;"/><line style="stroke:#181818;stroke-width:1.0;" x1="978.5" x2="1197.5" y1="295.2266" y2="295.2266"/><text fill="#000000" font-family="sans-serif" font-size="13" lengthAdjust="spacing" textLength="150" x="985.5" y="290.1606">get(.../courses/IFT2255)</text><polygon fill="#181818" points="1351.5,320.3594,1361.5,324.3594,1351.5,328.3594,1355.5,324.3594" style="stroke:#181818;stroke-width:1.0;"/><line style="stroke:#181818;stroke-width:1.0;" x1="1203.5" x2="1357.5" y1="324.3594" y2="324.3594"/><text fill="#000000" font-family="sans-serif" font-size="13" lengthAdjust="spacing" textLength="136" x="1210.5" y="319.2935">GET /courses/IFT2255</text><polygon fill="#181818" points="1214.5,349.4922,1204.5,353.4922,1214.5,357.4922,1210.5,353.4922" style="stroke:#181818;stroke-width:1.0;"/><line style="stroke:#181818;stroke-width:1.0;stroke-dasharray:2.0,2.0;" x1="1208.5" x2="1362.5" y1="353.4922" y2="353.4922"/><text fill="#000000" font-family="sans-serif" font-size="13" lengthAdjust="spacing" textLength="46" x="1220.5" y="348.4263">200 OK</text><polygon fill="#181818" points="989.5,378.625,979.5,382.625,989.5,386.625,985.5,382.625" style="stroke:#181818;stroke-width:1.0;"/><line style="stroke:#181818;stroke-width:1.0;stroke-dasharray:2.0,2.0;" x1="983.5" x2="1202.5" y1="382.625" y2="382.625"/><text fill="#000000" font-family="sans-serif" font-size="13" lengthAdjust="spacing" textLength="67" x="995.5" y="377.5591">body JSON</text><line style="stroke:#181818;stroke-width:1.0;" x1="978.5" x2="1020.5" y1="411.7578" y2="411.7578"/><line style="stroke:#181818;stroke-width:1.0;" x1="1020.5" x2="1020.5" y1="411.7578" y2="424.7578"/><line style="stroke:#181818;stroke-width:1.0;" x1="979.5" x2="1020.5" y1="424.7578" y2="424.7578"/><polygon fill="#181818" points="989.5,420.7578,979.5,424.7578,989.5,428.7578,985.5,424.7578" style="stroke:#181818;stroke-width:1.0;"/><text fill="#000000" font-family="sans-serif" font-size="13" lengthAdjust="spacing" textLength="149" x="985.5" y="406.6919">parse -&gt; CourseDetails</text><line style="stroke:#181818;stroke-width:1.0;" x1="978.5" x2="1020.5" y1="453.8906" y2="453.8906"/><line style="stroke:#181818;stroke-width:1.0;" x1="1020.5" x2="1020.5" y1="453.8906" y2="466.8906"/><line style="stroke:#181818;stroke-width:1.0;" x1="979.5" x2="1020.5" y1="466.8906" y2="466.8906"/><polygon fill="#181818" points="989.5,462.8906,979.5,466.8906,989.5,470.8906,985.5,466.8906" style="stroke:#181818;stroke-width:1.0;"/><text fill="#000000" font-family="sans-serif" font-size="13" lengthAdjust="spacing" textLength="104" x="985.5" y="448.8247">ajouter à results</text><line style="stroke:#181818;stroke-width:1.0;" x1="978.5" x2="1020.5" y1="496.0234" y2="496.0234"/><line style="stroke:#181818;stroke-width:1.0;" x1="1020.5" x2="1020.5" y1="496.0234" y2="509.0234"/><line style="stroke:#181818;stroke-width:1.0;" x1="979.5" x2="1020.5" y1="509.0234" y2="509.0234"/><polygon fill="#181818" points="989.5,505.0234,979.5,509.0234,989.5,513.0234,985.5,509.0234" style="stroke:#181818;stroke-width:1.0;"/><text fill="#000000" font-family="sans-serif" font-size="13" lengthAdjust="spacing" textLength="178" x="985.5" y="490.9575">getCourseDetails("XX9999")</text><polygon fill="#181818" points="1191.5,534.1563,1201.5,538.1563,1191.5,542.1563,1195.5,538.1563" style="stroke:#181818;stroke-width:1.0;"/><line style="stroke:#181818;stroke-width:1.0;" x1="978.5" x2="1197.5" y1="538.1563" y2="538.1563"/><text fill="#000000" font-family="sans-serif" font-size="13" lengthAdjust="spacing" textLength="149" x="985.5" y="533.0903">get(.../courses/XX9999)</text><polygon fill="#181818" points="1351.5,563.2891,1361.5,567.2891,1351.5,571.2891,1355.5,567.2891" style="stroke:#181818;stroke-width:1.0;"/><line style="stroke:#181818;stroke-width:1.0;" x1="1203.5" x2="1357.5" y1="567.2891" y2="567.2891"/><text fill="#000000" font-family="sans-serif" font-size="13" lengthAdjust="spacing" textLength="135" x="1210.5" y="562.2231">GET /courses/XX9999</text><polygon fill="#181818" points="1214.5,592.4219,1204.5,596.4219,1214.5,600.4219,1210.5,596.4219" style="stroke:#181818;stroke-width:1.0;"/><line style="stroke:#181818;stroke-width:1.0;stroke-dasharray:2.0,2.0;" x1="1208.5" x2="1362.5" y1="596.4219" y2="596.4219"/><text fill="#000000" font-family="sans-serif" font-size="13" lengthAdjust="spacing" textLength="94" x="1220.5" y="591.356">404 Not Found</text><polygon fill="#181818" points="989.5,621.5547,979.5,625.5547,989.5,629.5547,985.5,625.5547" style="stroke:#181818;stroke-width:1.0;"/><line style="stroke:#181818;stroke-width:1.0;stroke-dasharray:2.0,2.0;" x1="983.5" x2="1202.5" y1="625.5547" y2="625.5547"/><text fill="#000000" font-family="sans-serif" font-size="13" lengthAdjust="spacing" textLength="62" x="995.5" y="620.4888">exception</text><line style="stroke:#181818;stroke-width:1.0;" x1="978.5" x2="1020.5" y1="684.9531" y2="684.9531"/><line style="stroke:#181818;stroke-width:1.0;" x1="1020.5" x2="1020.5" y1="684.9531" y2="697.9531"/><line style="stroke:#181818;stroke-width:1.0;" x1="979.5" x2="1020.5" y1="697.9531" y2="697.9531"/><polygon fill="#181818" points="989.5,693.9531,979.5,697.9531,989.5,701.9531,985.5,697.9531" style="stroke:#181818;stroke-width:1.0;"/><text fill="#000000" font-family="sans-serif" font-size="13" lengthAdjust="spacing" textLength="101" x="985.5" y="649.6216">catch Exception</text><text fill="#000000" font-family="sans-serif" font-size="13" lengthAdjust="spacing" textLength="211" x="985.5" y="664.7544">log "Erreur pour le cours XX9999"</text><text fill="#000000" font-family="sans-serif" font-size="13" lengthAdjust="spacing" textLength="102" x="985.5" y="679.8872">(ne pas ajouter)</text><line style="stroke:#181818;stroke-width:1.0;" x1="978.5" x2="1020.5" y1="727.0859" y2="727.0859"/><line style="stroke:#181818;stroke-width:1.0;" x1="1020.5" x2="1020.5" y1="727.0859" y2="740.0859"/><line style="stroke:#181818;stroke-width:1.0;" x1="979.5" x2="1020.5" y1="740.0859" y2="740.0859"/><polygon fill="#181818" points="989.5,736.0859,979.5,740.0859,989.5,744.0859,985.5,740.0859" style="stroke:#181818;stroke-width:1.0;"/><text fill="#000000" font-family="sans-serif" font-size="13" lengthAdjust="spacing" textLength="179" x="985.5" y="722.02">getCourseDetails("IFT2015")</text><polygon fill="#181818" points="1191.5,765.2188,1201.5,769.2188,1191.5,773.2188,1195.5,769.2188" style="stroke:#181818;stroke-width:1.0;"/><line style="stroke:#181818;stroke-width:1.0;" x1="978.5" x2="1197.5" y1="769.2188" y2="769.2188"/><text fill="#000000" font-family="sans-serif" font-size="13" lengthAdjust="spacing" textLength="150" x="985.5" y="764.1528">get(.../courses/IFT2015)</text><polygon fill="#181818" points="1351.5,794.3516,1361.5,798.3516,1351.5,802.3516,1355.5,798.3516" style="stroke:#181818;stroke-width:1.0;"/><line style="stroke:#181818;stroke-width:1.0;" x1="1203.5" x2="1357.5" y1="798.3516" y2="798.3516"/><text fill="#000000" font-family="sans-serif" font-size="13" lengthAdjust="spacing" textLength="136" x="1210.5" y="793.2856">GET /courses/IFT2015</text><polygon fill="#181818" points="1214.5,823.4844,1204.5,827.4844,1214.5,831.4844,1210.5,827.4844" style="stroke:#181818;stroke-width:1.0;"/><line style="stroke:#181818;stroke-width:1.0;stroke-dasharray:2.0,2.0;" x1="1208.5" x2="1362.5" y1="827.4844" y2="827.4844"/><text fill="#000000" font-family="sans-serif" font-size="13" lengthAdjust="spacing" textLength="46" x="1220.5" y="822.4185">200 OK</text><polygon fill="#181818" points="989.5,852.6172,979.5,856.6172,989.5,860.6172,985.5,856.6172" style="stroke:#181818;stroke-width:1.0;"/><line style="stroke:#181818;stroke-width:1.0;stroke-dasharray:2.0,2.0;" x1="983.5" x2="1202.5" y1="856.6172" y2="856.6172"/><text fill="#000000" font-family="sans-serif" font-size="13" lengthAdjust="spacing" textLength="67" x="995.5" y="851.5513">body JSON</text><line style="stroke:#181818;stroke-width:1.0;" x1="978.5" x2="1020.5" y1="885.75" y2="885.75"/><line style="stroke:#181818;stroke-width:1.0;" x1="1020.5" x2="1020.5" y1="885.75" y2="898.75"/><line style="stroke:#181818;stroke-width:1.0;" x1="979.5" x2="1020.5" y1="898.75" y2="898.75"/><polygon fill="#181818" points="989.5,894.75,979.5,898.75,989.5,902.75,985.5,898.75" style="stroke:#181818;stroke-width:1.0;"/><text fill="#000000" font-family="sans-serif" font-size="13" lengthAdjust="spacing" textLength="149" x="985.5" y="880.6841">parse -&gt; CourseDetails</text><line style="stroke:#181818;stroke-width:1.0;" x1="978.5" x2="1020.5" y1="927.8828" y2="927.8828"/><line style="stroke:#181818;stroke-width:1.0;" x1="1020.5" x2="1020.5" y1="927.8828" y2="940.8828"/><line style="stroke:#181818;stroke-width:1.0;" x1="979.5" x2="1020.5" y1="940.8828" y2="940.8828"/><polygon fill="#181818" points="989.5,936.8828,979.5,940.8828,989.5,944.8828,985.5,940.8828" style="stroke:#181818;stroke-width:1.0;"/><text fill="#000000" font-family="sans-serif" font-size="13" lengthAdjust="spacing" textLength="104" x="985.5" y="922.8169">ajouter à results</text><polygon fill="#181818" points="682.5,973.0156,672.5,977.0156,682.5,981.0156,678.5,977.0156" style="stroke:#181818;stroke-width:1.0;"/><line style="stroke:#181818;stroke-width:1.0;stroke-dasharray:2.0,2.0;" x1="676.5" x2="977.5" y1="977.0156" y2="977.0156"/><text fill="#000000" font-family="sans-serif" font-size="13" lengthAdjust="spacing" textLength="242" x="688.5" y="971.9497">List&lt;CourseDetails&gt; (2 cours valides)</text><line style="stroke:#181818;stroke-width:1.0;" x1="671.5" x2="713.5" y1="1006.1484" y2="1006.1484"/><line style="stroke:#181818;stroke-width:1.0;" x1="713.5" x2="713.5" y1="1006.1484" y2="1019.1484"/><line style="stroke:#181818;stroke-width:1.0;" x1="672.5" x2="713.5" y1="1019.1484" y2="1019.1484"/><polygon fill="#181818" points="682.5,1015.1484,672.5,1019.1484,682.5,1023.1484,678.5,1019.1484" style="stroke:#181818;stroke-width:1.0;"/><text fill="#000000" font-family="sans-serif" font-size="13" lengthAdjust="spacing" textLength="102" x="678.5" y="1001.0825">ctx.json(results)</text><polygon fill="#181818" points="520.5,1044.2813,510.5,1048.2813,520.5,1052.2813,516.5,1048.2813" style="stroke:#181818;stroke-width:1.0;"/><line style="stroke:#181818;stroke-width:1.0;stroke-dasharray:2.0,2.0;" x1="514.5" x2="670.5" y1="1048.2813" y2="1048.2813"/><text fill="#000000" font-family="sans-serif" font-size="13" lengthAdjust="spacing" textLength="111" x="526.5" y="1043.2153">HTTP 200 + JSON</text><polygon fill="#181818" points="340.5,1073.4141,330.5,1077.4141,340.5,1081.4141,336.5,1077.4141" style="stroke:#181818;stroke-width:1.0;"/><line style="stroke:#181818;stroke-width:1.0;stroke-dasharray:2.0,2.0;" x1="334.5" x2="508.5" y1="1077.4141" y2="1077.4141"/><text fill="#000000" font-family="sans-serif" font-size="13" lengthAdjust="spacing" textLength="97" x="346.5" y="1072.3481">200 OK + JSON</text><polygon fill="#181818" points="47.5,1102.5469,37.5,1106.5469,47.5,1110.5469,43.5,1106.5469" style="stroke:#181818;stroke-width:1.0;"/><line style="stroke:#181818;stroke-width:1.0;stroke-dasharray:2.0,2.0;" x1="41.5" x2="328.5" y1="1106.5469" y2="1106.5469"/><text fill="#000000" font-family="sans-serif" font-size="13" lengthAdjust="spacing" textLength="259" x="53.5" y="1101.481">Affiche la comparaison des cours valides</text><!--MD5=[a3124aee496b3fb84ab82f836bd8a414]
@startuml
actor Etudiant
participant Client
participant Routes
participant "CourseController" as CCtrl
participant "CourseService" as CServ
participant "HttpClientApi" as Http
participant "API Planifium" as Planifium

Etudiant -> Client : /compare?sigles=IFT2255,XX9999,IFT2015
Client -> Routes : GET /compare?sigles=...
Routes -> CCtrl : compareCourses(ctx)

CCtrl -> CServ : compareCourses("IFT2255,XX9999,IFT2015")

loop pour chaque sigle
    CServ -> CServ : getCourseDetails("IFT2255")
    CServ -> Http : get(.../courses/IFT2255)
    Http -> Planifium : GET /courses/IFT2255
    Planifium - -> Http : 200 OK
    Http - -> CServ : body JSON
    CServ -> CServ : parse -> CourseDetails
    CServ -> CServ : ajouter à results

    CServ -> CServ : getCourseDetails("XX9999")
    CServ -> Http : get(.../courses/XX9999)
    Http -> Planifium : GET /courses/XX9999
    Planifium - -> Http : 404 Not Found
    Http - -> CServ : exception
    CServ -> CServ : catch Exception\nlog "Erreur pour le cours XX9999"\n(ne pas ajouter)

    CServ -> CServ : getCourseDetails("IFT2015")
    CServ -> Http : get(.../courses/IFT2015)
    Http -> Planifium : GET /courses/IFT2015
    Planifium - -> Http : 200 OK
    Http - -> CServ : body JSON
    CServ -> CServ : parse -> CourseDetails
    CServ -> CServ : ajouter à results
end

CServ - -> CCtrl : List<CourseDetails> (2 cours valides)

CCtrl -> CCtrl : ctx.json(results)
CCtrl - -> Routes : HTTP 200 + JSON
Routes - -> Client : 200 OK + JSON
Client - -> Etudiant : Affiche la comparaison des cours valides
@enduml

PlantUML version 1.2022.7(Mon Aug 22 17:01:30 UTC 2022)
(GPL source distribution)
Java Runtime: OpenJDK Runtime Environment
JVM: OpenJDK 64-Bit Server VM
Default Encoding: UTF-8
Language: en
Country: null
--></g></svg>